<svg width="20.630859" height="19.679688" viewBox="0 0 20.6309 19.6797" fill="none" xmlns="http://www.w3.org/2000/svg" xmlns:xlink="http://www.w3.org/1999/xlink">
	<desc>
			Created with Pixso.
	</desc>
	<defs/>
	<path id="Star" d="M9.36475 0.689453L7.61328 6.06445C7.47949 6.47656 7.0957 6.75391 6.6626 6.75391L1.00195 6.75391C0.0327148 6.75391 -0.369629 7.99609 0.415039 8.56445L4.99023 11.8789C5.34131 12.1328 5.48877 12.5859 5.354 12.998L3.60547 18.3652C3.30566 19.2852 4.35889 20.0527 5.14307 19.4844L9.72852 16.1621C10.0786 15.9082 10.5522 15.9082 10.9023 16.1621L15.4878 19.4844C16.272 20.0527 17.3252 19.2852 17.0254 18.3652L15.2764 12.998C15.1421 12.5859 15.2891 12.1328 15.6406 11.8789L20.2153 8.56445C21.0005 7.99609 20.5981 6.75391 19.6289 6.75391L13.9683 6.75391C13.5352 6.75391 13.1514 6.47656 13.0171 6.06445L11.2661 0.689453C10.9663 -0.230469 9.66455 -0.230469 9.36475 0.689453Z" fill="#E5E5E5" fill-opacity="1.000000" fill-rule="evenodd"/>
</svg>
